<?xml version="1.0" standalone="no"?>
<!DOCTYPE svg PUBLIC "-//W3C//DTD SVG 20010904//EN"
 "http://www.w3.org/TR/2001/REC-SVG-20010904/DTD/svg10.dtd">
<svg version="1.0" xmlns="http://www.w3.org/2000/svg"
 width="50.000000pt" height="50.000000pt" viewBox="0 0 50.000000 50.000000"
 preserveAspectRatio="xMidYMid meet">

<g transform="translate(0.000000,50.000000) scale(0.100000,-0.100000)"
fill="#000000" stroke="none">
<path d="M70 250 l0 -230 180 0 180 0 0 163 0 163 -68 67 -68 67 -112 0 -112
0 0 -230z m210 145 l0 -65 65 0 65 0 0 -145 0 -145 -160 0 -160 0 0 210 0 210
95 0 95 0 0 -65z m110 -42 c0 -2 -20 -3 -45 -3 l-45 0 0 47 0 47 45 -44 c25
-24 45 -45 45 -47z"/>
<path d="M222 263 c7 -52 -9 -91 -43 -109 -16 -8 -29 -21 -29 -29 0 -22 37
-18 53 5 19 27 58 39 106 33 33 -5 41 -3 41 10 0 18 -30 30 -52 22 -22 -9 -42
22 -43 63 0 28 -5 38 -19 40 -16 3 -18 -1 -14 -35z m38 -74 c0 -5 -7 -9 -15
-9 -9 0 -12 6 -9 15 6 15 24 11 24 -6z"/>
</g>
</svg>
